:SAMPLES-PER-SECOND 30
:FULLY-SPECIFIED
:DEGREES
895
root  60.605 38.0107 2.22718 163.976 52.7652 168.627
RightUpLeg  -15.1236 0.85567 -19.6388
RightLeg  56.1259 0.511907 0.403776
RightFoot  -0.813835 -0.892593 9.60031
RightToes  9.54606e-009 0 -3.6325e-017
Spine  7.85296 2.00458 -5.67893
Spine1  6.26637 2.94978 -8.87727
HEad  -32.8371 25.043 -27.5998
LeftShoulder1  -0.121275 3.83059 -30.9452
LeftArm  22.6396 -12.8297 -45.0757
LeftForeArm  19.9974 -27.4747 -4.71489
LeftHand  -0.0612814 6.81585 -0.695789
RightShoulder  -0.325128 -4.4782 26.1385
RightArm  24.5869 5.40032 53.459
RightForeArm  7.93631 18.0739 5.64217
RightHand  -0.175697 5.66639 -2.16578
LeftUpLeg  -3.90039 3.24351 -13.0833
LeftLeg  18.6049 7.95372 0.676376
LeftFoot  -8.53115 -0.211995 10.704
LeftToes  -8.26734e-010 9.74065e-011 1.64617e-011
896
root  60.9871 38.0189 2.35684 164.034 50.3506 168.964
RightUpLeg  -16.078 6.74616 -21.0606
RightLeg  54.0186 1.104 1.25296
RightFoot  -1.23616 -0.742095 8.27777
RightToes  9.54606e-009 0 -3.6325e-017
Spine  9.35565 1.89371 -6.39372
Spine1  4.54626 2.37725 -7.83159
HEad  -34.6736 26.1864 -30.4234
LeftShoulder1  -0.252655 4.1809 -31.2411
LeftArm  18.0841 -13.7632 -45.6675
LeftForeArm  20.3878 -28.4709 -5.05478
LeftHand  -0.024213 5.48847 1.31932
RightShoulder  -0.150914 -3.95925 25.2252
RightArm  23.2552 4.97606 53.6442
RightForeArm  7.08269 19.6044 5.01585
RightHand  -0.182314 5.8146 -2.20736
LeftUpLeg  -3.03314 3.17356 -12.9608
LeftLeg  18.7055 5.72149 0.29621
LeftFoot  -8.91945 -0.16438 10.2988
LeftToes  -8.26734e-010 9.74065e-011 1.64617e-011
897
root  61.3881 38.0119 2.48232 164.67 47.8358 169.244
RightUpLeg  -17.433 11.1401 -22.663
RightLeg  51.7624 1.50671 1.69857
RightFoot  -2.3737 -0.61034 7.5719
RightToes  9.54606e-009 0 -3.6325e-017
Spine  8.66335 1.86405 -5.7817
Spine1  5.57608 2.67733 -8.57652
HEad  -36.2025 26.1405 -32.2315
LeftShoulder1  -0.130336 3.85073 -30.969
LeftArm  15.8933 -15.1229 -45.4915
LeftForeArm  18.7507 -31.0074 -5.73437
LeftHand  -0.0251094 5.6323 1.20514
RightShoulder  -0.274395 -4.32575 25.7541
RightArm  22.9616 5.94335 52.862
RightForeArm  5.60486 20.8827 4.77412
RightHand  -0.231258 5.95335 -2.68341
LeftUpLeg  -3.02764 3.24112 -12.6995
LeftLeg  19.2255 3.13295 -0.395412
LeftFoot  -9.38061 -0.116191 10.065
LeftToes  -8.26734e-010 9.74065e-011 1.64617e-011
898
root  61.8047 38.0508 2.57122 165.69 45.5464 169.668
RightUpLeg  -18.7668 14.6725 -24.0213
RightLeg  48.863 1.92814 2.0343
RightFoot  -3.31248 -0.50954 6.93204
RightToes  9.54606e-009 0 -3.6325e-017
Spine  6.8296 1.91896 -3.87278
Spine1  8.00597 3.61438 -10.4625
HEad  -37.2958 24.8875 -33.1912
LeftShoulder1  0.135494 3.13108 -30.0536
LeftArm  11.9338 -17.3517 -47.56
LeftForeArm  19.45 -29.8221 -5.41361
LeftHand  -0.0300338 4.45691 1.09531
RightShoulder  -0.568207 -5.17695 27.2753
RightArm  21.7527 7.27087 51.6094
RightForeArm  6.15375 21.8369 4.61125
RightHand  -0.136197 5.70887 -1.74294
LeftUpLeg  -3.08344 3.20819 -12.2444
LeftLeg  19.3405 0.541234 -1.08213
LeftFoot  -9.76133 -0.071388 9.43386
LeftToes  -8.26734e-010 9.74065e-011 1.64617e-011
899
root  62.2019 38.086 2.61624 166.381 43.209 169.927
RightUpLeg  -19.5049 16.7203 -25.1913
RightLeg  45.34 2.68284 2.60938
RightFoot  -3.82067 -0.392824 5.5864
RightToes  9.54606e-009 0 -3.6325e-017
Spine  7.37944 1.66506 -4.00254
Spine1  6.91569 3.15905 -9.6677
HEad  -37.7604 25.7981 -34.6943
LeftShoulder1  0.00821905 3.48136 -30.1639
LeftArm  11.7202 -16.9787 -46.6483
LeftForeArm  19.0242 -31.1059 -5.74392
LeftHand  -0.0294699 5.16735 2.01208
RightShoulder  -0.524504 -5.0442 27.2412
RightArm  20.0201 6.58532 51.4211
RightForeArm  7.91176 22.2971 4.50104
RightHand  -0.190743 6.19565 -2.24552
LeftUpLeg  -2.81484 3.27826 -11.8323
LeftLeg  19.2432 -2.14669 -1.94567
LeftFoot  -10.2973 -0.0170863 8.6022
LeftToes  -8.26734e-010 9.74065e-011 1.64617e-011
900
root  62.5918 38.1122 2.64911 167.165 41.1254 170.251
RightUpLeg  -19.9295 17.4923 -25.8064
RightLeg  41.252 3.6686 3.16575
RightFoot  -5.31614 -0.318804 5.33997
RightToes  9.54606e-009 0 -3.6325e-017
Spine  7.59213 1.58074 -3.29704
Spine1  6.45884 3.17002 -9.705
HEad  -37.8788 26.2558 -35.614
LeftShoulder1  -0.0468735 3.63192 -30.2644
LeftArm  9.63944 -16.478 -46.7075
LeftForeArm  20.681 -30.7619 -5.56722
LeftHand  -0.050518 3.54165 2.30223
RightShoulder  -0.507938 -4.99741 27.1845
RightArm  19.7036 6.03943 51.1435
RightForeArm  8.6198 22.2404 4.46985
RightHand  -0.103108 6.11981 -1.37594
LeftUpLeg  -2.75351 2.94944 -11.4579
LeftLeg  19.3566 -4.39527 -2.37829
LeftFoot  -11.1264 0.0533264 7.34421
LeftToes  -8.26734e-010 9.74065e-011 1.64617e-011
